<svg width="347" height="89" viewBox="0 0 347 89" fill="none" xmlns="http://www.w3.org/2000/svg">
<path d="M58.504 11.688H12.808V77.864H42.76V44.712H22.152L33.288 33.704H55.432V89H42.76V79.528L33.288 89H11.144L0.136001 77.864V11.688L11.144 0.551994H47.368L58.504 11.688ZM132.697 89H120.153V55.848H90.073V89H77.401V11.688L88.537 0.551994H132.697V89ZM128.089 11.688H90.073V54.312L99.673 44.712H120.153V19.624L128.089 11.688ZM230.751 88.872H218.079V19.624L226.015 11.816H215.647L198.623 44.712H189.407L173.023 11.816H162.783L170.719 19.624V88.872H158.047V0.551994H180.703L193.887 29.608H195.423L208.863 0.551994H230.751V88.872ZM268.719 89H256.047V0.551994H268.719V89ZM346.271 77.864L335.135 89H303.519L292.511 77.864V11.688L303.519 0.551994H335.135L346.271 11.688V20.904L333.599 33.704V11.688H305.183V77.864H333.599V68.52L346.271 55.848V77.864Z" fill="black"/>
</svg>
